<?xml version="1.0" encoding="UTF-8" standalone="no"?>
<!-- Created with Inkscape (http://www.inkscape.org/) -->

<svg
   width="512"
   height="512"
   viewBox="0 0 512 512"
   version="1.1"
   id="svg1"
   xml:space="preserve"
   xmlns="http://www.w3.org/2000/svg"
   xmlnsSvg="http://www.w3.org/2000/svg"><defs
     id="defs1"><clipPath
       clipPathUnits="userSpaceOnUse"
       id="clipPath140"><path
         id="path141"
         style="fill:#ff0000;fill-opacity:1;fill-rule:nonzero;stroke:none"
         d="m 265.03516,276.19531 v 62.22266 h 38.53711 v -62.22266 z m 23.06836,36.51367 h 0.002 c 0.0306,5e-5 0.0612,4.6e-4 0.0918,0.002 0.0393,0.002 0.0786,0.005 0.11718,0.0117 0.002,3.6e-4 0.0272,0.007 0.0371,0.01 0.002,7.7e-4 0.006,-4.4e-4 0.006,0 0.0261,3e-5 0.052,4.8e-4 0.0781,0.002 0.0141,1.8e-4 0.0288,3.5e-4 0.043,0.002 0.0271,-0.009 0.0529,-0.0206 0.0898,-0.0215 0.072,-0.002 0.14084,0.0136 0.21094,0.0274 0.0511,0.009 0.10174,0.0204 0.15234,0.0312 0.0318,0.005 0.0625,0.0164 0.0937,0.0234 0.0316,0.008 0.064,0.0154 0.0957,0.0234 0.0297,0.008 0.0587,0.0211 0.0879,0.0312 0.0254,0.007 0.0458,0.0213 0.0703,0.0274 0.025,0.007 0.0484,0.0165 0.0742,0.0195 0.0382,0.004 0.0756,0.0164 0.11328,0.0234 0.0338,0.004 0.0658,0.0119 0.0977,0.0234 0.0112,0.004 0.0233,0.007 0.0352,0.008 0.0255,0.002 0.0492,0.0116 0.0742,0.0156 0.027,0.003 0.0541,0.01 0.0801,0.0176 0.0377,0.009 0.0704,0.0292 0.10351,0.0488 0.0379,0.0228 0.0744,0.0479 0.11133,0.0723 0.0333,0.0211 0.0679,0.0411 0.0996,0.0645 0.0323,0.0248 0.0656,0.0473 0.0977,0.0723 0.0348,0.0282 0.0641,0.0603 0.0976,0.0898 0.0304,0.0263 0.0611,0.0539 0.0899,0.082 0.0316,0.0269 0.0532,0.0625 0.082,0.0918 0.0265,0.0253 0.0477,0.0554 0.0703,0.084 0.0249,0.0278 0.0488,0.0568 0.0723,0.0859 0.0278,0.0326 0.0495,0.0686 0.0742,0.10352 0.0856,0.12102 0.0627,0.22433 -0.004,0.26172 0.0586,0.0781 0.11604,0.15777 0.1582,0.27539 0.0347,0.0871 0.0767,0.21602 0.0879,0.29102 0.0369,0.13946 0.0558,0.2812 0.0488,0.42578 -10e-6,0.10175 3e-5,0.20293 0,0.30468 -4e-5,0.10096 2.1e-4,0.20178 0,0.30274 0,0.13106 2.5e-4,0.26153 -0.002,0.39258 -0.002,0.15701 -0.003,0.314 -0.0137,0.4707 -0.013,0.15898 -0.0342,0.31836 -0.0762,0.47266 -0.0124,0.0433 -0.0554,0.19574 -0.0703,0.21679 -0.009,0.13493 -0.0215,0.2697 -0.0488,0.40235 -0.0352,0.16647 -0.0675,0.23496 -0.0625,0.25586 -0.0131,0.15658 -0.0329,0.31334 -0.0762,0.46484 -0.0473,0.16395 -0.0832,0.22109 -0.0742,0.24219 -0.0205,0.20508 -0.0491,0.40969 -0.10156,0.60937 -0.0491,0.19623 -0.0882,0.39279 -0.125,0.5918 -0.0487,0.20899 -0.0894,0.41804 -0.11914,0.63086 -0.0505,0.22014 -0.12263,0.43163 -0.20703,0.64062 -0.0669,0.18971 -0.12876,0.37986 -0.19336,0.57032 -0.0845,0.23323 -0.16225,0.46879 -0.27344,0.6914 -0.0947,0.20154 -0.1953,0.39878 -0.2832,0.60352 -0.0767,0.16151 -0.15568,0.32308 -0.23242,0.48437 -0.10327,0.20893 -0.21897,0.41013 -0.33985,0.60938 -0.12519,0.21831 -0.19759,0.46594 -0.33594,0.67773 -0.12372,0.20034 -0.25672,0.3937 -0.38671,0.58985 -0.14758,0.21274 -0.29487,0.42543 -0.44727,0.63476 -0.17381,0.24864 -0.35626,0.48836 -0.56055,0.71289 -0.20533,0.2608 -0.37147,0.5524 -0.59375,0.80078 -0.18328,0.22805 -0.35945,0.46236 -0.5664,0.66992 -0.17885,0.16699 -0.37706,0.30913 -0.5586,0.47266 -0.15628,0.12616 -0.32328,0.23752 -0.47851,0.36524 -0.1655,0.13699 -0.30187,0.30761 -0.48047,0.42968 -0.10699,0.0779 -0.21876,0.14928 -0.32031,0.23438 -0.139,0.1033 -0.28099,0.20208 -0.41602,0.31054 -0.11885,0.0789 -0.23986,0.1521 -0.36914,0.2129 -0.14558,0.0717 -0.29279,0.13881 -0.44336,0.19921 -0.10805,0.0485 -0.21742,0.0938 -0.32617,0.14063 -0.009,0.0104 -0.0178,0.0214 -0.0274,0.0312 -0.0333,0.036 -0.0699,0.068 -0.10742,0.0996 -0.0379,0.0338 -0.0815,0.0602 -0.125,0.0859 -0.0479,0.027 -0.0943,0.0558 -0.14258,0.082 -0.0516,0.0267 -0.10485,0.051 -0.15625,0.0781 -0.0452,0.0247 -0.0918,0.0471 -0.13867,0.0684 -0.0361,0.0162 -0.0733,0.0305 -0.10937,0.0469 -0.0276,0.0115 -0.0532,0.0285 -0.0781,0.0449 -0.0341,0.023 -0.0662,0.0475 -0.10156,0.0684 -0.0402,0.022 -0.0817,0.0408 -0.12305,0.0605 -0.0336,0.0172 -0.0697,0.0294 -0.10547,0.041 -0.0386,0.0128 -0.0771,0.025 -0.11523,0.0391 -0.0381,0.016 -0.0793,0.0262 -0.11914,0.0371 -0.0369,0.0109 -0.074,0.0203 -0.11133,0.0293 -0.035,0.01 -0.0686,0.0193 -0.10351,0.0293 -0.0347,0.01 -0.0701,0.0184 -0.10547,0.0254 -0.0312,0.005 -0.0627,0.0116 -0.0937,0.0176 -0.0457,0.009 -0.0755,-3e-5 -0.0977,-0.0156 h -0.002 c -0.008,0.005 -0.0147,0.008 -0.0234,0.0117 -0.002,0.002 -0.0148,0.005 -0.0254,0.008 -0.001,3.3e-4 -0.003,0.002 -0.004,0.002 -0.0136,0.006 -0.0284,0.0109 -0.043,0.0137 -0.0158,0.002 -0.0217,0.003 -0.0351,0.006 -0.0166,0.004 -0.0338,0.008 -0.0508,0.01 -0.01,6.9e-4 -0.004,-7.2e-4 -0.0137,0 -0.002,1.2e-4 -0.008,3.7e-4 -0.006,0 0.007,-0.001 0.017,-0.003 0.004,0.002 -0.0153,0.006 -0.0308,0.01 -0.0469,0.0117 h -0.002 c -0.006,0.002 -0.0165,0.0107 -0.0195,0.0117 -0.0139,0.004 -0.0286,0.007 -0.043,0.008 -10e-4,4.9e-4 -0.004,8.6e-4 -0.006,0.002 -0.004,10e-4 -0.008,0.003 -0.0117,0.004 -0.0158,0.005 -0.0325,0.005 -0.0488,0.006 -0.002,3.2e-4 -0.0481,0.003 -0.0254,0.002 -0.007,0.003 -0.0212,0.006 -0.0312,0.008 -0.0124,0.003 -0.0245,0.003 -0.0371,0.004 -0.0102,3.8e-4 -0.0211,-7e-5 -0.0312,0 -0.01,5e-5 -0.0193,-10e-6 -0.0293,0 -0.014,0 -0.0289,0 -0.043,0 h -0.0332 -0.0312 -0.0352 -0.043 -0.0391 -0.0449 c -0.0182,9.9e-4 -0.0368,-6.3e-4 -0.0547,-0.004 -0.0128,-0.002 -0.0241,-0.003 -0.0371,-0.004 -0.018,-1e-4 -0.0354,-0.009 -0.0527,-0.0117 -0.0133,-0.003 -0.0275,-0.003 -0.041,-0.004 -0.02,-6.8e-4 -0.0386,-0.002 -0.0586,-0.002 -0.0221,-1.2e-4 -0.0443,3e-5 -0.0664,0 -0.021,0 -0.0434,10e-6 -0.0645,0 -0.0253,10e-4 -0.0493,-0.005 -0.0742,-0.008 -0.0228,-0.003 -0.0438,-0.01 -0.0664,-0.0137 -0.0224,-0.002 -0.0445,-0.008 -0.0664,-0.0137 -0.019,-0.004 -0.0378,-0.0106 -0.0566,-0.0156 -0.009,-10e-4 -0.0186,-0.003 -0.0274,-0.006 h -0.002 c -0.008,-0.001 -0.0169,-0.003 -0.0254,-0.004 -0.0613,-0.007 -0.12239,-0.0144 -0.18359,-0.0234 -0.0518,-0.008 -0.1028,-0.0173 -0.1543,-0.0273 -0.0313,-0.006 -0.0625,-0.0132 -0.0937,-0.0195 -0.002,-5e-4 -0.005,5e-4 -0.008,0 -0.0111,-9.9e-4 -0.0224,-0.004 -0.0332,-0.006 -0.0181,-0.003 -0.0365,-0.008 -0.0547,-0.0117 -0.0109,-0.003 -0.0222,-0.005 -0.0332,-0.008 -0.004,-7.5e-4 -0.008,-0.007 -0.0117,-0.008 -0.008,-0.002 -0.0171,-0.002 -0.0254,-0.004 -0.0354,-0.008 -0.0703,-0.0183 -0.10547,-0.0274 -0.0341,-0.008 -0.0679,-0.0134 -0.10156,-0.0234 -0.0325,-0.009 -0.0657,-0.0206 -0.0976,-0.0312 -0.0301,-0.01 -0.0609,-0.0183 -0.0899,-0.0312 -0.0222,-0.01 -0.0442,-0.0173 -0.0664,-0.0273 -0.0224,-0.01 -0.0448,-0.0203 -0.0684,-0.0273 -0.0238,-0.008 -0.0467,-0.0125 -0.0703,-0.0215 -0.0219,-0.008 -0.0446,-0.0174 -0.0664,-0.0254 -0.02,-0.008 -0.0393,-0.0193 -0.0586,-0.0293 -0.0186,-0.009 -0.0378,-0.0164 -0.0566,-0.0254 -0.0204,-0.01 -0.0403,-0.0209 -0.0605,-0.0312 -0.0161,-0.008 -0.0324,-0.0135 -0.0488,-0.0215 -0.0158,-0.008 -0.0309,-0.0184 -0.0469,-0.0254 -0.0163,-0.008 -0.0324,-0.0154 -0.0488,-0.0234 -0.0163,-0.008 -0.0315,-0.0134 -0.0469,-0.0234 -0.0144,-0.008 -0.0289,-0.0164 -0.043,-0.0254 -0.014,-0.009 -0.0285,-0.0189 -0.043,-0.0273 -0.0146,-0.009 -0.0271,-0.0193 -0.041,-0.0293 -0.0124,-0.009 -0.0256,-0.0188 -0.0371,-0.0293 -0.0107,-0.01 -0.0217,-0.0183 -0.0332,-0.0274 -0.01,-0.008 -0.0203,-0.0164 -0.0293,-0.0254 -0.009,-0.008 -0.0164,-0.0154 -0.0254,-0.0234 -0.01,-0.008 -0.0193,-0.0174 -0.0293,-0.0254 -0.0117,-0.0103 -0.0217,-0.0208 -0.0332,-0.0312 -0.01,-0.01 -0.0193,-0.0203 -0.0293,-0.0293 -0.009,-0.009 -0.0154,-0.0193 -0.0234,-0.0293 -0.008,-0.009 -0.0164,-0.0183 -0.0234,-0.0273 -0.007,-0.009 -0.0145,-0.0174 -0.0215,-0.0254 -0.007,-0.008 -0.0164,-0.0164 -0.0234,-0.0254 -0.008,-0.009 -0.0154,-0.0187 -0.0234,-0.0273 -0.008,-0.0101 -0.0155,-0.0199 -0.0215,-0.0312 -0.007,-0.0108 -0.0135,-0.0221 -0.0195,-0.0332 -0.006,-0.0118 -0.0106,-0.0239 -0.0176,-0.0352 -0.006,-0.0101 -0.0106,-0.0203 -0.0176,-0.0293 -0.008,-0.0107 -0.0174,-0.019 -0.0254,-0.0293 -0.008,-0.0113 -0.0165,-0.0239 -0.0215,-0.0371 -0.005,-0.012 -0.008,-0.0249 -0.0117,-0.0371 -0.003,-0.008 -0.007,-0.0174 -0.01,-0.0254 -0.003,-0.009 -0.008,-0.0164 -0.0117,-0.0254 -0.004,-0.0105 -0.007,-0.019 -0.0117,-0.0293 -8.7e-4,-0.002 -8e-4,-0.006 -0.002,-0.008 -0.009,-0.003 -0.0181,8.5e-4 -0.0254,-0.0137 0,-0.002 -7e-4,-0.008 -0.002,-0.01 -0.006,-0.012 -0.0106,-0.0248 -0.0156,-0.0371 -0.005,-0.0127 -0.01,-0.0249 -0.0156,-0.0371 -0.004,-0.0111 -0.0106,-0.0221 -0.0156,-0.0332 -0.006,-0.0131 -0.0116,-0.0272 -0.0156,-0.041 -0.004,-0.0111 -0.007,-0.0216 -0.01,-0.0332 -0.002,-0.0103 -0.008,-0.0215 -0.0117,-0.0312 -0.004,-0.0118 -0.009,-0.0232 -0.0117,-0.0352 -0.003,-0.0108 -0.008,-0.0226 -0.0117,-0.0332 -0.002,-0.008 -0.007,-0.0154 -0.01,-0.0234 -0.002,-0.008 -0.009,-0.0135 -0.01,-0.0215 l -0.006,-0.0215 c -0.001,-0.004 -0.002,-0.008 -0.004,-0.0117 -0.002,-0.006 -0.004,-0.0135 -0.006,-0.0195 -8e-4,-0.007 -1.9e-4,-0.0125 0,-0.0195 -7e-5,-0.006 3e-4,-0.01 0,-0.0156 0,-0.002 -7.3e-4,-0.006 -0.002,-0.008 -0.002,-0.006 -0.002,-0.0116 -0.002,-0.0176 -1e-5,-0.005 -6.8e-4,-0.0106 -0.002,-0.0156 -10e-4,-0.006 -0.004,-0.0116 -0.004,-0.0176 -10e-5,-0.003 -7.2e-4,-0.009 -0.002,-0.0117 -0.002,-0.006 -0.004,-0.0116 -0.004,-0.0176 0,-0.005 -6.8e-4,-0.009 -0.002,-0.0137 -0.002,-0.007 -0.003,-0.0145 -0.004,-0.0215 -0.002,-0.007 -0.003,-0.0125 -0.004,-0.0195 0,-0.006 -0.003,-0.0135 -0.004,-0.0195 -9.9e-4,-0.009 3.3e-4,-0.0164 -0.002,-0.0254 -0.002,-0.009 -0.008,-0.0203 -0.008,-0.0293 10e-6,-0.008 3.4e-4,-0.0154 -0.002,-0.0234 -0.002,-0.008 -0.005,-0.0135 -0.006,-0.0215 -0.001,-0.008 -0.005,-0.0174 -0.006,-0.0254 -10e-4,-0.007 3.2e-4,-0.0125 -0.002,-0.0195 -0.002,-0.009 -0.007,-0.0164 -0.008,-0.0254 -0.001,-0.009 -0.003,-0.0183 -0.004,-0.0274 -0.002,-0.01 -0.006,-0.0193 -0.008,-0.0293 -0.001,-0.009 -0.002,-0.0193 -0.002,-0.0293 -10e-6,-0.009 8e-5,-0.0164 0,-0.0254 -7e-5,-0.006 3.6e-4,-0.0135 0,-0.0195 0,-0.005 -7.2e-4,-0.009 -0.002,-0.0137 -0.002,-0.009 -0.004,-0.0164 -0.004,-0.0254 v -0.0215 -0.0234 -0.0234 -0.0254 -0.0195 -0.0215 -0.0176 -0.0195 -0.0176 -0.0117 -0.0117 -0.0176 -0.0215 -0.0234 -0.0176 -0.0156 -0.0195 -0.0156 c 10e-6,-0.004 -1e-5,-0.0106 0,-0.0156 2e-5,-0.005 0.002,-0.009 0.002,-0.0137 1.3e-4,-0.005 -5.7e-4,-0.0106 0,-0.0156 0.001,-0.006 0.003,-0.0116 0.004,-0.0176 6.9e-4,-0.005 3.9e-4,-0.009 0,-0.0137 0,-0.007 7.2e-4,-0.0145 0.002,-0.0215 9.9e-4,-0.006 0.004,-0.0126 0.006,-0.0176 -2.7e-4,0.009 9e-5,-0.009 0,-0.01 v -0.0117 -0.0117 -0.0117 -0.0137 -0.0117 -0.0156 c 0,-0.006 -2e-5,-0.0135 0,-0.0195 2e-5,-0.005 -1.5e-4,-0.008 0,-0.0117 5e-5,-0.005 -6.6e-4,-0.009 0,-0.0137 0.001,-0.005 0.003,-0.0109 0.004,-0.0156 -1.6e-4,0.008 -3e-5,-0.007 0,-0.008 1.3e-4,-0.005 -5e-4,-0.0106 0,-0.0156 0,-0.007 0.002,-0.0145 0.004,-0.0215 0.002,-0.005 0.002,-0.004 0.002,-0.0117 0,-0.007 0.002,-0.0145 0.004,-0.0215 9.9e-4,-0.005 0.002,-0.009 0.002,-0.0137 10e-4,-0.006 0.005,-0.0116 0.006,-0.0176 9.5e-4,-0.005 3.5e-4,-0.005 0,-0.0117 10e-6,-0.008 -6e-5,-0.0154 0,-0.0234 6e-5,-0.008 0.004,-0.0154 0.004,-0.0234 0,-0.009 6.7e-4,-0.0164 0.002,-0.0254 10e-4,-0.006 0.003,-0.0135 0.004,-0.0195 10e-4,-0.009 0.006,-0.0174 0.008,-0.0254 5.5e-4,0.002 0,-0.009 0,-0.01 v -0.002 c 2e-5,-0.008 -7e-5,-0.0174 0,-0.0254 10e-5,-0.0101 -5e-4,-0.0192 0,-0.0293 0,-0.009 0.002,-0.0203 0.004,-0.0293 10e-4,-0.007 0.002,-0.0125 0.002,-0.0195 10e-4,-0.009 0.002,-0.0183 0.004,-0.0273 0.002,-0.007 -10e-4,-0.0145 0,-0.0215 0,-0.009 6.7e-4,-0.0164 0.002,-0.0254 10e-4,-0.008 0.003,-0.0154 0.004,-0.0234 10e-4,-0.0112 0.004,-0.0221 0.006,-0.0332 0.002,-0.012 0.004,-0.0248 0.004,-0.0371 9.8e-4,-0.0111 0.004,-0.0223 0.006,-0.0332 0.002,-0.011 0.002,-0.0222 0.004,-0.0332 9.9e-4,-0.01 -7.2e-4,-0.0174 0,-0.0274 9.9e-4,-0.009 0.002,-0.0183 0.004,-0.0273 l 0.006,-0.0234 c 0.002,-0.009 0.006,-0.0183 0.008,-0.0273 0.002,-0.009 0.004,-0.0164 0.006,-0.0254 0.003,-0.0109 0.008,-0.0225 0.0117,-0.0332 0.003,-0.01 0.004,-0.0209 0.006,-0.0312 0.002,-0.008 0.01,-0.0174 0.0117,-0.0254 10e-4,-0.006 0.003,-0.0116 0.004,-0.0176 0.001,-0.0101 0.004,-0.0193 0.006,-0.0293 0.002,-0.007 0.002,-0.0164 0.002,-0.0234 0,-0.009 -1.1e-4,-0.0183 0,-0.0273 0,-0.009 6.5e-4,-0.0183 0.002,-0.0273 10e-4,-0.007 0.002,-0.0125 0.004,-0.0195 0.003,-0.0118 0.009,-0.0242 0.0176,-0.0332 -0.0397,-0.21472 -0.0135,-0.47872 0.13281,-0.78711 0.0471,-0.0995 0.0649,-0.2079 0.10157,-0.3125 0.0361,-0.11363 0.0684,-0.23018 0.0976,-0.33984 0.0424,-0.16554 0.0976,-0.32529 0.1543,-0.48633 0.0153,-0.0442 0.0354,-0.0866 0.0508,-0.13086 -0.0372,0.006 -0.0698,-0.0328 -0.0449,-0.0977 0.0158,-0.0412 0.0288,-0.0847 0.0469,-0.125 0.0196,-0.0447 0.0397,-0.0887 0.0605,-0.13281 0.0192,-0.0415 0.0376,-0.0838 0.0527,-0.12695 0.0175,-0.046 0.0338,-0.0913 0.0527,-0.13672 0.0193,-0.0479 0.0378,-0.0963 0.0566,-0.14453 0.017,-0.0449 0.0326,-0.0896 0.0488,-0.13477 0.014,-0.0396 0.0284,-0.0806 0.0391,-0.12109 0.0127,-0.0457 0.0236,-0.0913 0.0371,-0.13672 0.0131,-0.0445 0.0249,-0.0887 0.0391,-0.13281 0.0151,-0.0414 0.034,-0.0822 0.0508,-0.12305 0.0178,-0.0434 0.0339,-0.0879 0.0527,-0.13086 0.0174,-0.0402 0.0367,-0.0782 0.0566,-0.11719 0.0165,-0.0342 0.0321,-0.0694 0.0488,-0.10351 0.0138,-0.0295 0.027,-0.0584 0.041,-0.0879 0.0125,-0.0277 0.0246,-0.0563 0.0371,-0.084 0.01,-0.0226 0.02,-0.0444 0.0312,-0.0664 0.0132,-0.0263 0.0286,-0.0524 0.043,-0.0781 0.01,-0.0166 0.0179,-0.0339 0.0274,-0.0508 l 0.002,-0.002 c 9.9e-4,-0.005 6.1e-4,-0.0107 0.002,-0.0156 0.002,6.7e-4 0.004,6.5e-4 0.006,0.002 7.2e-4,-0.001 6.5e-4,-0.003 0.002,-0.004 -0.006,-0.004 -0.0118,-0.008 -0.0195,-0.0137 -10e-4,-9e-4 0.013,-0.0382 0.0137,-0.0391 0.009,-0.0207 0.0154,-0.0424 0.0254,-0.0625 0.003,-0.007 0.005,-0.0215 0.0117,-0.0195 0.002,4.9e-4 0.004,6.4e-4 0.006,0.002 0.005,-0.0101 0.009,-0.0222 0.0117,-0.0274 0.001,-0.003 0.003,-0.003 0.004,-0.006 0.009,-0.0183 0.0146,-0.0286 0.0234,-0.0293 -0.007,-0.0174 -0.008,-0.0392 0.004,-0.0684 0.009,-0.0214 0.0174,-0.0433 0.0274,-0.0645 0.0233,-0.0523 0.0454,-0.1066 0.0703,-0.1582 0.0208,-0.0443 0.0415,-0.0877 0.0605,-0.13281 0.0164,-0.0372 0.032,-0.0752 0.0508,-0.11133 0.0179,-0.0355 0.0357,-0.0714 0.0527,-0.10742 0.0179,-0.038 0.0367,-0.0744 0.0566,-0.11133 0.0253,-0.0452 0.0522,-0.09 0.0781,-0.13477 0.0256,-0.0437 0.0502,-0.0873 0.0723,-0.13281 0.0249,-0.0487 0.0494,-0.0978 0.0742,-0.14648 0.0275,-0.0514 0.0596,-0.1022 0.0859,-0.1543 0.0304,-0.058 0.0589,-0.11418 0.0898,-0.17188 0.0242,-0.0467 0.0487,-0.0949 0.0664,-0.14453 0.0174,-0.044 0.0337,-0.0885 0.0547,-0.13086 0.0173,-0.0343 0.0344,-0.068 0.0566,-0.0996 0.023,-0.0302 0.05,-0.0586 0.0801,-0.082 0.021,-0.0174 0.0416,-0.0353 0.0625,-0.0527 -0.007,-0.0274 -0.004,-0.0602 0.0254,-0.0996 0.002,-0.003 0.004,-0.004 0.006,-0.006 0.008,-0.0102 0.0155,-0.0192 0.0215,-0.0312 0.01,-0.0154 0.0215,-0.0314 0.0312,-0.0469 0.008,-0.012 0.0145,-0.0247 0.0215,-0.0371 0.007,-0.0143 0.01,-0.031 0.0176,-0.0449 0.006,-0.0123 0.0126,-0.0243 0.0176,-0.0371 0.01,-0.0204 0.0201,-0.0403 0.0332,-0.0586 0.008,-0.0104 0.0184,-0.0183 0.0254,-0.0293 0.008,-0.0117 0.0174,-0.0223 0.0254,-0.0332 0.007,-0.008 0.0115,-0.0164 0.0195,-0.0234 -0.004,0.009 0.0124,-0.0245 0.0117,-0.0215 0.005,-0.0103 0.0126,-0.026 0.0176,-0.0312 -0.006,0.0146 0.009,-0.0194 0.0117,-0.0234 0.003,-0.007 0.005,-0.009 0.0117,-0.0273 0.006,-0.0131 0.0125,-0.0262 0.0195,-0.0391 0.002,-0.003 0.009,-0.0123 0.0137,-0.0195 0.004,-0.0107 0.0117,-0.0278 0.0137,-0.0273 -0.006,0.0131 0.0184,-0.0312 0.0234,-0.0332 0.009,-0.0125 0.0164,-0.0247 0.0254,-0.0371 0.0116,-0.0174 0.0212,-0.0375 0.0332,-0.0547 0.012,-0.0192 0.0227,-0.039 0.0371,-0.0566 0.006,-0.007 0.0132,-0.0234 0.0234,-0.0352 0.004,-0.006 0.0117,-0.0144 0.0117,-0.0137 -0.005,0.0126 0.0146,-0.0282 0.0176,-0.0312 0.01,-0.0174 0.0192,-0.0349 0.0312,-0.0508 0.009,-0.0122 0.0174,-0.0252 0.0234,-0.0391 0.009,-0.0142 0.0155,-0.0274 0.0215,-0.043 0.008,-0.0163 0.0174,-0.0328 0.0254,-0.0488 0.009,-0.0177 0.0158,-0.0358 0.0293,-0.0508 0.01,-0.0125 0.0183,-0.0263 0.0273,-0.0391 0.0131,-0.0186 0.0235,-0.038 0.0391,-0.0547 0.0167,-0.0199 0.0318,-0.042 0.0449,-0.0644 0.0151,-0.0245 0.0304,-0.0474 0.041,-0.0742 0.0165,-0.0344 0.0337,-0.0689 0.0566,-0.0996 0.0188,-0.0271 0.0359,-0.0562 0.0566,-0.082 0.0196,-0.0266 0.0376,-0.0542 0.0605,-0.0781 0.0154,-0.0171 0.0303,-0.0335 0.043,-0.0527 0.0131,-0.0182 0.0271,-0.0364 0.0371,-0.0566 0.0153,-0.0275 0.0293,-0.0559 0.0469,-0.082 0.0165,-0.0235 0.0345,-0.0466 0.0508,-0.0703 0.022,-0.0299 0.0454,-0.0565 0.0703,-0.084 0.02,-0.0231 0.0416,-0.046 0.0625,-0.0684 0.0178,-0.0205 0.0346,-0.0426 0.0508,-0.0644 0.0143,-0.0177 0.0292,-0.0347 0.043,-0.0527 -0.012,-0.0301 -0.009,-0.0702 0.0351,-0.11328 0.0128,-0.0123 0.0247,-0.0243 0.0371,-0.0371 0.0235,-0.0247 0.043,-0.0536 0.0645,-0.0801 0.024,-0.0332 0.0449,-0.0687 0.0664,-0.10351 0.0214,-0.0356 0.043,-0.0719 0.0645,-0.10742 0.023,-0.0381 0.0455,-0.0759 0.0664,-0.11524 0.0259,-0.0434 0.0558,-0.0849 0.084,-0.12695 0.0302,-0.0433 0.0611,-0.0859 0.0937,-0.12696 0.0342,-0.0442 0.0679,-0.0888 0.0996,-0.13476 0.032,-0.047 0.0628,-0.0956 0.0976,-0.14063 0.0356,-0.0474 0.0702,-0.0945 0.10742,-0.14062 0.042,-0.0542 0.082,-0.11066 0.125,-0.16406 0.0435,-0.0543 0.0893,-0.10781 0.13282,-0.16211 0.0395,-0.0491 0.0799,-0.0967 0.12109,-0.14453 0.0331,-0.0385 0.0667,-0.0754 0.0957,-0.11719 0.0308,-0.0418 0.062,-0.0824 0.0918,-0.125 0.0366,-0.0498 0.0751,-0.0998 0.11328,-0.14844 0.0509,-0.0624 0.1055,-0.12145 0.1543,-0.18555 0.0506,-0.0634 0.10275,-0.1265 0.15625,-0.1875 l 0.004,-0.004 c 0.1148,-0.15234 0.23307,-0.30193 0.36329,-0.43945 0.0513,-0.0476 0.10594,-0.0909 0.16015,-0.13477 9.4e-4,-10e-4 4.9e-4,-0.003 0.002,-0.004 0.044,-0.049 0.0867,-0.0995 0.13281,-0.14648 0.0367,-0.0353 0.0751,-0.0684 0.12109,-0.0898 0.0351,-0.0194 0.0715,-0.0386 0.10742,-0.0566 0.001,-6.4e-4 0.005,-4e-4 0.006,-0.002 0.0115,-0.0166 0.022,-0.0338 0.0352,-0.0488 0.001,-10e-4 0.0108,-0.0121 0.0195,-0.0215 0.001,-10e-4 6e-5,-0.003 0.002,-0.004 0.0177,-0.0286 0.0359,-0.0556 0.041,-0.0527 0.005,0.003 0.009,0.005 0.0137,0.008 0.0102,-0.0148 0.02,-0.0289 0.0293,-0.043 0.0212,-0.0339 0.0402,-0.0691 0.0664,-0.0996 0.0192,-0.0201 0.038,-0.0407 0.0625,-0.0547 0.0128,-0.0121 0.0387,-0.0323 0.0566,-0.0469 0.0241,-0.0185 0.0511,-0.0352 0.0742,-0.0547 0.0276,-0.0227 0.0468,-0.0558 0.0801,-0.0723 5e-4,-4e-4 0.0269,-0.0226 0.0391,-0.0332 0.0195,-0.0141 0.0387,-0.0279 0.0586,-0.041 -2e-5,-0.0786 0.0497,-0.18064 0.17187,-0.31641 0.0799,-0.0889 0.18114,-0.1955 0.27344,-0.24804 -0.11198,0.13972 0.17992,-0.23004 0.19922,-0.21094 -0.0792,0.10337 0.25309,-0.28497 0.27539,-0.29297 0.18039,-0.16585 0.37523,-0.31163 0.58594,-0.4375 0.17686,-0.11301 0.34953,-0.2363 0.54687,-0.3125 0.17301,-0.0778 0.33787,-0.17234 0.51563,-0.24024 0.20136,-0.0914 0.39822,-0.19626 0.62109,-0.22656 0.19036,-0.0381 0.37905,-0.10495 0.57617,-0.0937 0.1165,4e-5 0.23311,-2.4e-4 0.34961,0 h 0.0137 c 0.0134,-10e-4 0.0275,-0.002 0.041,-0.002 0.0568,-0.005 0.11322,-0.0126 0.16992,-0.0176 0.0299,-0.002 0.0598,-0.004 0.0899,-0.004 z m -8.56446,7.83594 c -0.0117,0.0162 -0.0233,0.0327 -0.0351,0.0488 0.009,-0.0121 0.02,-0.0217 0.0293,-0.0332 0.002,-0.005 0.004,-0.0105 0.006,-0.0156 z m -0.0351,0.0508 c -0.008,0.0107 -0.008,0.008 -0.0117,0.0156 9.5e-4,-0.002 -1.8e-4,-10e-5 -0.002,0.004 -10e-4,0.003 -0.004,0.006 -0.008,0.0156 0.007,-0.012 0.0154,-0.0229 0.0215,-0.0352 z m -0.0215,0.0352 c -0.004,0.007 -0.008,0.0132 -0.0137,0.0195 -10e-4,0.002 -4.4e-4,0.002 -0.002,0.004 l -0.002,0.002 c -0.004,0.008 -0.008,0.0167 -0.0117,0.0254 0.0104,-0.0165 0.0197,-0.0338 0.0293,-0.0508 z m -1.66406,3.14258 c -0.004,0.009 -0.009,0.0181 -0.0137,0.0273 0.004,-0.007 0.008,-0.0128 0.0117,-0.0195 3.8e-4,-0.003 0.002,-0.005 0.002,-0.008 z m -1.33398,4.73828 c -5.3e-4,0.006 -0.002,0.0118 -0.004,0.0176 -10e-4,0.004 -0.002,0.01 -0.002,0.0137 -3.4e-4,0.004 8e-5,0.006 0,0.01 8e-5,0.005 6.2e-4,0.0106 0,0.0156 10e-4,-0.0187 0.004,-0.0376 0.006,-0.0566 z m -0.006,0.0566 c -0.001,0.005 -0.003,0.01 -0.004,0.0137 -4e-4,0.004 1.2e-4,0.007 0,0.01 -1.2e-4,0.004 2e-5,0.006 0,0.01 -2e-5,0.006 10e-6,0.0135 0,0.0195 7.9e-4,-0.0176 0.002,-0.035 0.004,-0.0527 z m -0.0156,0.20117 c -0.001,0.004 -0.007,0.008 -0.008,0.0117 -3.4e-4,0.003 7e-5,0.007 0,0.01 -10e-5,0.005 1e-5,0.009 0,0.0137 -2e-5,0.005 0,0.009 0,0.0137 -10e-6,0.006 0,0.0116 0,0.0176 0.002,-0.0221 0.005,-0.0445 0.008,-0.0664 z m 3.68555,0.74805 c -6.4e-4,0.0163 -0.002,0.0325 -0.002,0.0488 2e-4,0.009 0.0177,-0.0174 0.0137,-0.0254 -0.004,-0.008 -0.008,-0.0155 -0.0117,-0.0234 z m -2.27149,1.52344 c 0.0199,0.008 0.041,0.0146 0.0605,0.0234 0.0273,0.0122 0.0555,0.0203 0.084,0.0293 -0.0188,-0.007 -0.0214,-0.0193 -0.0332,-0.0293 -0.0203,-0.006 -0.0405,-0.0126 -0.0605,-0.0195 -0.003,-10e-4 -0.006,-0.003 -0.01,-0.004 -0.0133,4.8e-4 -0.0276,9.5e-4 -0.041,0 z m 3.04688,0.0195 c -0.0709,0.0206 -0.14243,0.0386 -0.21485,0.0527 0.006,8.2e-4 0.0106,5.5e-4 0.0156,0.002 0.013,-0.003 0.0261,-0.006 0.0391,-0.01 0.0362,-0.009 0.0717,-0.0187 0.10742,-0.0293 0.0178,-0.005 0.0351,-0.01 0.0527,-0.0156 z m -2.60742,0.004 c 0.009,0.004 0.0117,0.007 0.0137,0.008 h 0.002 c 0.003,5.4e-4 0.007,8.5e-4 0.01,0.002 -0.008,-0.003 -0.0158,-0.006 -0.0254,-0.01 z m 2,0.11719 c -0.029,0.002 -0.058,0.003 -0.0859,0.0117 -0.0176,0.006 -0.0352,0.013 -0.0527,0.0195 0.008,-0.002 0.0154,-0.004 0.0234,-0.004 0.01,-0.001 0.0193,-0.002 0.0293,-0.004 0.0137,-0.003 0.0289,-0.007 0.043,-0.008 0.006,-0.001 0.01,-0.003 0.0176,-0.008 0.004,-0.001 0.0194,-0.008 0.0254,-0.008 z" /></clipPath></defs><g
     id="layer1"
     style="display:inline;fill:#bfdcc0;fill-opacity:1"><circle
       style="display:inline;fill:#000000;fill-opacity:1"
       id="path7"
       cx="269.12897"
       cy="124.15449"
       r="56" /><circle
       style="display:inline;fill:#a1a9b5;fill-opacity:1"
       id="path9"
       cx="269.27655"
       cy="124.70759"
       r="53" /><circle
       style="display:inline;fill:#bfdcc0;fill-opacity:1"
       id="path10"
       cx="269.79309"
       cy="124.93793"
       r="43.793793" /></g><g
     id="layer3"
     style="display:inline"><path
       style="display:inline;fill:#000000;fill-opacity:1"
       d="m 254.31217,305.46788 c -0.2922,-0.72813 -1.33015,-0.87512 -2.39221,-0.55408 -1.06207,0.32103 -2.14822,1.11006 -3.49641,2.71523 -1.34819,1.60517 -2.95834,4.02636 -4.28765,6.30304 -1.32931,2.27668 -2.37771,4.40872 -3.21489,6.51797 -0.83718,2.10925 -1.46308,4.19557 -1.83328,6.56201 -0.3702,2.36643 -0.48468,5.01282 -0.11846,7.16085 0.36623,2.14804 1.21313,3.7976 2.00029,4.87046 0.78717,1.07286 1.51456,1.56897 2.38476,1.71952 0.87021,0.15055 1.88318,-0.0444 2.8663,-0.38383 0.98312,-0.33938 1.93633,-0.82312 3.17548,-1.74774 1.23915,-0.92462 2.76416,-2.29006 4.12462,-2.70167 1.36045,-0.41161 2.55626,0.13062 3.6653,0.61448 1.10903,0.48385 2.13123,0.9093 3.5178,0.77803 1.38656,-0.13127 3.1374,-0.81924 4.30399,-1.34073 1.16659,-0.52149 1.74887,-0.87648 1.98026,-1.5608 0.23139,-0.68432 0.11187,-1.69792 -0.26169,-2.48959 -0.37356,-0.79168 -1.00114,-1.36138 -1.9547,-1.37039 -0.95356,-0.009 -2.23303,0.54266 -3.24509,0.59581 -1.01205,0.0532 -1.75663,-0.39221 -2.16761,-1.08555 -0.41099,-0.69333 -0.48836,-1.63459 -0.39452,-2.68974 0.0938,-1.05515 0.35887,-2.22412 0.58093,-3.07629 0.22206,-0.85217 0.40113,-1.38748 0.70549,-2.50586 0.30436,-1.11837 0.734,-2.81973 1.08062,-4.16529 0.34661,-1.34556 0.61018,-2.33526 0.71523,-3.92396 0.10505,-1.58871 0.0516,-3.77631 -0.33478,-5.10478 -0.38635,-1.32847 -1.10555,-1.79773 -1.84292,-1.7105 -0.73737,0.0872 -1.49285,0.73096 -2.02168,1.79104 -0.52883,1.06008 -0.83098,2.53645 -1.12633,4.04546 -0.29534,1.50902 -0.58386,3.0506 -0.93855,4.61864 -0.35469,1.56805 -0.77551,3.16246 -1.29187,4.93894 -0.51636,1.77647 -1.12821,3.7349 -1.92292,5.32443 -0.79472,1.58953 -1.77226,2.81009 -2.61447,3.85035 -0.84221,1.04026 -1.54904,1.90016 -2.26313,2.53897 -0.7141,0.63881 -1.4354,1.0565 -2.18199,0.74133 -0.7466,-0.31517 -1.51843,-1.36316 -1.95563,-2.52137 -0.43719,-1.15821 -0.53972,-2.42657 -0.37449,-3.96222 0.16524,-1.53565 0.59823,-3.33849 1.25057,-5.16078 0.65234,-1.82229 1.52398,-3.66392 2.49337,-5.38178 0.96939,-1.71787 2.03646,-3.31187 3.18198,-4.77507 1.14553,-1.46319 2.36943,-2.79551 3.20818,-4.11633 0.83875,-1.32083 1.29229,-2.63008 1.0001,-3.35821 z"
       id="path11" /><path
       style="display:inline;mix-blend-mode:normal;fill:#000000;fill-opacity:1"
       d="m 265.36825,329.73395 c 0.43478,-0.45722 1.30435,-1.37166 2.28087,-2.01036 0.97651,-0.63871 2.05994,-1.00167 3.00123,-1.94799 0.94128,-0.94633 1.74038,-2.47596 2.5721,-4.3123 0.83173,-1.83634 1.69603,-3.97928 3.03133,-6.00318 1.33529,-2.02391 3.14149,-3.92866 4.78125,-5.19045 1.63975,-1.26179 3.11297,-1.88056 4.89532,-1.95751 1.78235,-0.077 3.87371,0.38792 4.97015,0.20716 1.09645,-0.18076 1.19793,-1.00711 1.576,-2.97703 0.37807,-1.96992 1.0327,-5.08327 1.49412,-7.9952 0.46141,-2.91193 0.72959,-5.62227 1.03018,-8.79684 0.30059,-3.17457 0.63356,-6.81317 1.31085,-9.0457 0.6773,-2.23253 1.69887,-3.05889 2.87648,-3.37268 1.1776,-0.31379 2.51118,-0.11501 3.3363,0.90607 0.82511,1.02108 1.14173,2.86439 1.02451,5.85444 -0.11722,2.99005 -0.66827,7.12665 -1.34587,10.6626 -0.67761,3.53596 -1.48174,6.47108 -2.36484,9.35062 -0.8831,2.87953 -1.84511,5.70331 -2.54977,8.39181 -0.70465,2.68851 -1.1519,5.24159 -1.54632,7.76707 -0.39442,2.52548 -0.73599,5.0232 -0.92115,6.96983 -0.18515,1.94663 -0.21389,3.34206 0.22352,4.40968 0.43741,1.06762 1.34093,1.80738 2.45479,1.88936 1.11386,0.082 2.438,-0.4938 3.28503,0.17899 0.84703,0.6728 1.2169,2.59411 0.7473,3.82465 -0.4696,1.23054 -1.77864,1.77027 -3.42396,1.86525 -1.64532,0.095 -3.62681,-0.25476 -4.89457,-0.67907 -1.26776,-0.4243 -1.82174,-0.92313 -2.15241,-1.54004 -0.33068,-0.6169 -0.43804,-1.35183 -0.68914,-2.02283 -0.2511,-0.671 -0.64593,-1.27803 -1.18871,-1.48425 -0.54278,-0.20623 -1.23347,-0.0116 -1.78023,0.42105 -0.54675,0.43269 -0.94955,1.10346 -1.33286,1.63922 -0.38331,0.53575 -0.74711,0.93645 -1.44349,1.40573 -0.69637,0.46928 -1.72528,1.00711 -2.78378,1.27604 -1.05851,0.26892 -2.14654,0.26892 -3.30276,0.2078 -1.15622,-0.0611 -2.38055,-0.18337 -3.34648,-0.43616 -0.96592,-0.25278 -1.67338,-0.63607 -2.23775,-1.13587 -0.56438,-0.49979 -0.98562,-1.11604 -1.21817,-1.64613 -0.23254,-0.53009 -0.27636,-0.97398 -1.00189,-1.00931 -0.72552,-0.0353 -2.1327,0.3379 -3.21332,-0.12856 -1.08062,-0.46646 -1.83463,-1.77256 -2.21164,-2.42562 -0.37702,-0.65307 -0.377,-0.65307 0.0578,-1.11029 z"
       id="path12"
       clip-path="url(#clipPath140)" /><path
       style="display:none;opacity:0.211;mix-blend-mode:normal;fill:#ffffff;fill-opacity:1"
       d="m 278.40912,331.21684 c -0.70245,-0.17603 -1.36841,-0.42912 -1.70139,-0.98249 -0.33298,-0.55336 -0.33298,-1.40698 -0.2058,-2.33034 0.12717,-0.92336 0.38151,-1.91641 0.73505,-2.94126 0.35353,-1.02485 0.80624,-2.08143 1.39221,-3.1804 0.58598,-1.09898 1.30518,-2.24027 2.05397,-3.28462 0.7488,-1.04435 1.52714,-1.99169 2.34366,-2.81891 0.81652,-0.82721 1.67119,-1.53426 2.37427,-1.98467 0.70308,-0.4504 1.25454,-0.64414 1.80025,-0.80319 0.54571,-0.15905 1.08564,-0.28339 1.70328,-0.16753 0.61763,0.11585 1.31294,0.47189 1.6606,1.07904 0.34766,0.60715 0.34766,1.46538 0.22562,2.22465 -0.12204,0.75928 -0.36611,1.41957 -0.56574,2.13869 -0.19962,0.71913 -0.35478,1.49705 -0.57915,2.33706 -0.22437,0.84001 -0.51792,1.74206 -0.99832,2.65776 -0.48039,0.91571 -1.1476,1.84501 -1.73431,2.64602 -0.5867,0.80101 -1.09287,1.47366 -1.73011,2.18848 -0.63724,0.71483 -1.40551,1.47178 -2.19299,2.07809 -0.78749,0.60632 -1.59413,1.06195 -2.36694,1.24029 -0.7728,0.17833 -1.51172,0.0794 -2.21416,-0.0967 z"
       id="path13" /><path
       style="display:inline;fill:#000000;fill-opacity:1"
       d="m 301.94014,337.74131 c 0.61951,-0.0834 1.85854,-0.25036 2.84942,-0.69479 0.99087,-0.44444 1.73356,-1.16637 2.64203,-1.90164 0.90848,-0.73527 1.98268,-1.48384 2.67559,-1.96936 0.69291,-0.48553 1.00449,-0.70801 1.37752,-0.25036 0.37304,0.45765 0.8075,1.59538 1.14719,2.62139 0.3397,1.026 0.58461,1.94021 1.32596,2.60659 0.74136,0.66639 1.97911,1.08491 3.10188,1.2557 1.12277,0.17078 2.1305,0.0938 3.03069,-0.18988 0.90018,-0.28371 1.69278,-0.77415 2.34574,-1.37732 0.65297,-0.60317 1.16627,-1.31902 1.57506,-1.97586 0.40878,-0.65685 0.71303,-1.25465 1.11877,-1.6518 0.40575,-0.39714 0.91297,-0.59361 1.38141,-0.66533 0.46845,-0.0717 0.89808,-0.0187 1.29229,0.35123 0.39421,0.36989 0.75298,1.0566 1.19626,1.54475 0.44328,0.48815 0.97105,0.77772 1.64635,1.01551 0.6753,0.23778 1.49809,0.42377 2.3101,0.51677 0.81202,0.093 1.61321,0.093 2.27697,-0.0283 0.66377,-0.1213 1.19007,-0.3639 1.36914,-1.29985 0.17907,-0.93595 0.0109,-2.56517 -0.42525,-3.38818 -0.43615,-0.82302 -1.14026,-0.83978 -1.65839,-0.86568 -0.51814,-0.0259 -0.85028,-0.0609 -1.1863,-0.33413 -0.33603,-0.27323 -0.67592,-0.78464 -0.89179,-1.53354 -0.21587,-0.7489 -0.30772,-1.73524 -0.35364,-2.72287 -0.0459,-0.98763 -0.0459,-1.97649 -0.0679,-2.93539 -0.022,-0.9589 -0.0661,-1.88779 -0.0482,-2.76125 0.0178,-0.87345 0.0975,-1.69141 0.39631,-2.45468 0.29881,-0.76326 0.81672,-1.47177 1.00239,-2.28337 0.18568,-0.81159 0.0391,-1.72622 0.0192,-2.69393 -0.0199,-0.96771 0.0868,-1.98844 0.14018,-2.84092 0.0534,-0.85249 0.0534,-1.53668 -0.048,-2.25161 -0.10138,-0.71493 -0.30414,-1.46056 -0.87701,-1.72665 -0.57287,-0.26609 -1.51581,-0.0526 -2.176,0.0541 -0.6602,0.10673 -1.03763,0.10673 -1.40511,0.47809 -0.36748,0.37136 -0.72498,1.11405 -0.87816,1.84786 -0.15318,0.7338 -0.10201,1.45867 -0.21986,2.71407 -0.11785,1.25541 -0.40469,3.04126 -0.78139,4.80935 -0.37671,1.76808 -0.84325,3.51829 -1.45785,5.18384 -0.61459,1.66555 -1.3772,3.24634 -2.15755,4.66823 -0.78036,1.42189 -1.57841,2.6848 -2.2969,3.50331 -0.71849,0.81851 -1.35739,1.19258 -1.94221,1.29239 -0.58482,0.0998 -1.11552,-0.0746 -1.39671,-1.20298 -0.28119,-1.12834 -0.31285,-3.21048 -0.28968,-5.10416 0.0232,-1.89369 0.10117,-3.59882 0.0984,-4.89437 -0.003,-1.29555 -0.0862,-2.18146 0.18086,-2.93686 0.26704,-0.75539 0.88455,-1.38024 1.16102,-2.3078 0.27648,-0.92756 0.21189,-2.15776 0.1125,-3.09213 -0.0994,-0.93436 -0.23359,-1.57284 -0.69732,-2.10041 -0.46373,-0.52757 -1.25695,-0.94421 -2.15462,-0.87427 -0.89768,0.0699 -1.89975,0.62643 -2.45447,1.36202 -0.55472,0.73558 -0.66208,1.65021 -0.79335,2.70578 -0.13126,1.05557 -0.28642,2.25201 -0.53354,3.86545 -0.24712,1.61345 -0.58618,3.64379 -1.25037,5.27537 -0.66418,1.63158 -1.65346,2.86429 -2.79489,4.03844 -1.14144,1.17414 -2.43496,2.28965 -3.76491,3.30537 -1.32994,1.01573 -2.69623,1.93162 -3.26752,3.31126 -0.57128,1.37965 -0.34755,3.22295 -0.23568,4.14462 0.11187,0.92168 0.11188,0.92166 0.7314,0.8382 z"
       id="path14" /><path
       style="display:inline;fill:#000000;fill-opacity:1"
       d="m 336.93392,335.9743 c 0.8011,0.77562 2.23934,0.28202 3.45657,0.17991 1.21724,-0.10212 2.21343,0.18724 3.30538,0.49297 1.09195,0.30572 2.27959,0.62779 3.47355,0.61468 1.19396,-0.0131 2.39417,-0.36138 3.82529,-0.90217 1.43112,-0.54078 3.09306,-1.27404 4.41996,-2.00428 1.3269,-0.73024 2.31869,-1.45741 3.04913,-2.69227 0.73045,-1.23485 1.1995,-2.9773 1.23095,-4.51924 0.0315,-1.54194 -0.3747,-2.88327 -1.31578,-4.0247 -0.94108,-1.14143 -2.41703,-2.0829 -3.98088,-2.94839 -1.56385,-0.86548 -3.21551,-1.65493 -4.49754,-2.47733 -1.28203,-0.82239 -2.19435,-1.67768 -2.7086,-2.95815 -0.51426,-1.28046 -0.63042,-2.986 -0.26126,-4.46388 0.36916,-1.47788 1.22361,-2.728 2.00564,-3.45655 0.78203,-0.72856 1.49159,-0.93551 2.40834,-1.09319 0.91676,-0.15769 2.04065,-0.26609 3.35812,-0.37073 1.31747,-0.10463 2.82843,-0.20549 3.61612,-0.75834 0.78768,-0.55284 0.85206,-1.55763 0.37176,-2.53425 -0.48029,-0.97662 -1.50522,-1.92501 -2.59633,-2.51539 -1.09111,-0.59037 -2.24834,-0.8227 -3.70043,-0.77845 -1.45209,0.0443 -3.19894,0.36506 -4.79341,1.0499 -1.59446,0.68485 -3.03644,1.73367 -3.92467,2.74709 -0.88823,1.01342 -1.22267,1.99138 -1.64132,3.072 -0.41864,1.08063 -0.92145,2.26386 -1.19719,3.76387 -0.27574,1.5 -0.32438,3.31668 -0.18378,4.88231 0.14059,1.56563 0.47042,2.88012 1.03815,3.94858 0.56773,1.06846 1.37333,1.89083 2.39304,2.7061 1.01972,0.81526 2.25348,1.62338 3.51832,2.4984 1.26483,0.87503 2.56066,1.81692 3.44187,2.59706 0.88121,0.78014 1.34775,1.39849 1.44347,1.98509 0.0957,0.5866 -0.17938,1.14142 -0.74166,1.66679 -0.56228,0.52537 -1.4117,1.02127 -2.33726,1.38697 -0.92557,0.36569 -1.92721,0.60116 -2.63774,0.54591 -0.71052,-0.0553 -1.12988,-0.40123 -1.46056,-0.99885 -0.33068,-0.59761 -0.57265,-1.44682 -0.76798,-1.92889 -0.19532,-0.48207 -0.34398,-0.59697 -0.98028,-0.49527 -0.6363,0.1017 -1.7602,0.42 -2.75695,0.80677 -0.99674,0.38677 -1.86629,0.84198 -2.67862,1.20516 -0.81233,0.36318 -1.56739,0.6343 -1.86294,1.79231 -0.29555,1.15801 -0.13158,3.20282 0.66952,3.97845 z"
       id="path15" /></g><g
     id="layer4"
     style="display:inline"><path
       style="display:inline;fill:#000000;fill-opacity:1"
       d="m 253.70831,427.35341 c -5.8812,-0.29586 -12.88354,-1.01875 -19.11746,-2.50274 -6.23391,-1.484 -18.50821,-6.23362 -26.36005,-10.87873 -7.85184,-4.64512 -19.08965,-14.30255 -26.36721,-22.95259 -7.27756,-8.65004 -15.59736,-22.89748 -20.13262,-35.39599 -4.53526,-12.49851 -6.68266,-26.32816 -6.70449,-39.1046 -0.0218,-12.77645 2.26131,-26.99747 6.6869,-39.21768 4.42558,-12.22022 14.92618,-29.30189 25.38169,-40.23731 10.45551,-10.93543 23.8301,-19.53109 37.51789,-25.46354 13.68778,-5.93244 17.78787,-6.92337 27.16227,-7.6337 9.37441,-0.71033 30.39352,0.93598 44.55174,7.84995 14.15823,6.91397 27.37738,19.56533 35.14157,27.75706 7.76418,8.19172 9.63407,11.51333 11.36247,14.28564 1.72839,2.77232 3.46327,5.25819 4.70032,8.0207 1.23704,2.76252 1.97619,5.80152 2.30383,7.9423 0.32765,2.14077 0.24376,3.38321 -0.10609,4.48506 -0.34985,1.10185 -0.96565,2.06304 -1.81288,3.04104 -0.84724,0.97799 -1.92586,1.97273 -3.04449,2.41213 -1.11863,0.4394 -2.27718,0.32345 -3.47377,-0.054 -1.19659,-0.37748 -2.43114,-1.01646 -3.74862,-2.01173 -1.31748,-0.99527 -2.71782,-2.34676 -3.65979,-3.93045 -0.94197,-1.5837 -1.42553,-3.3995 -1.71616,-5.0614 -0.29063,-1.6619 -0.38833,-3.1698 0.0683,-4.75349 0.45669,-1.58369 1.46771,-3.24308 2.19973,-4.48506 0.73201,-1.24198 1.18497,-2.06649 1.05115,-2.8014 -0.13382,-0.7349 -0.5193,-1.08008 -1.27446,-1.67174 -0.75515,-0.59167 -2.53383,-1.80353 -3.90603,-2.56276 -1.37219,-0.75922 -8.69785,-3.96682 -12.92529,-5.41452 -4.22744,-1.4477 -11.0171,-3.15067 -16.10324,-3.52865 -5.08613,-0.37798 -17.28715,0.96631 -25.06289,3.6892 -7.77574,2.72289 -20.21801,11.13609 -27.51684,18.749 -7.29882,7.61291 -14.37587,19.75068 -18.27307,30.65696 -3.89721,10.90629 -6.32833,27.72515 -6.2167,41.09256 0.11164,13.36741 2.92265,29.03925 10.12718,42.92415 7.20452,13.8849 16.18677,22.43617 26.92456,28.61719 10.7378,6.18102 26.59232,10.10769 35.5651,9.03215 8.97279,-1.07555 26.68785,-7.87625 39.20573,-17.41212 12.51789,-9.53587 15.28365,-16.15852 18.92937,-22.2114 3.64573,-6.05288 2.3177,-4.88128 2.93598,-4.91056 0.61828,-0.0293 0.54875,0.81688 0.45714,1.80694 -0.0916,0.99005 -0.18826,1.92617 -0.7572,3.79422 -0.56895,1.86806 -1.60826,4.64979 -2.98384,7.37003 -1.37557,2.72024 -3.08728,5.37871 -5.10688,8.31578 -2.0196,2.93707 -4.34697,6.15257 -7.35566,9.29611 -3.00869,3.14353 -6.69851,6.21493 -10.43302,8.85673 -3.73452,2.6418 -7.51349,4.85384 -11.75882,6.72375 -4.24532,1.86991 -8.95674,3.39759 -12.84512,4.50783 -3.88837,1.11024 -6.95349,1.80299 -10.31571,2.25919 -3.36222,0.4562 -7.02135,0.67584 -11.39482,0.76333 -4.37346,0.0875 -9.461,0.0428 -14.84735,0.0817 -5.38635,0.0389 -11.0712,0.16134 -16.9524,-0.13452 z"
       id="path16" /><path
       style="display:inline;fill:#b7a398;fill-opacity:1"
       d="m 218.2275,272.96534 c -2.51179,3.09886 -4.7139,6.44859 -6.56292,9.98315 -3.07152,5.87147 -5.15285,12.21662 -6.74499,18.64884 -3.35559,13.55651 -4.58016,27.70841 -2.8296,41.56389 1.95518,15.47503 7.6683,30.49664 16.73037,43.19224 13.16883,18.44902 33.45924,31.67436 55.65414,36.27552 l 1.09691,-2.09833 -2.8259,-1.51805 c -3.08081,-0.49061 -6.12387,-1.21806 -9.09349,-2.17382 -2.27379,-0.73181 -4.50413,-1.59718 -6.68282,-2.57646 -12.65373,-5.68762 -23.43378,-15.23776 -31.21256,-26.725 -7.77878,-11.48724 -12.60865,-24.85832 -14.69306,-38.57405 -3.70195,-24.35937 1.36897,-49.95846 14.07766,-71.06705 0.84278,-0.53825 1.39518,-1.5053 1.43071,-2.50467 0.0327,-0.91894 -0.35757,-1.82968 -0.98861,-2.49849 -0.63104,-0.6688 -1.48777,-1.10353 -2.38573,-1.30144 -1.74665,-0.38496 -3.66909,0.1464 -4.97011,1.37372 z"
       id="path1" /><path
       style="display:inline;fill:#c29fc1;fill-opacity:1"
       d="m 330.65055,244.80744 c 0.36253,-0.40276 0.5494,-0.94761 0.56116,-1.48937 0.0118,-0.54176 -0.14372,-1.07945 -0.39758,-1.55819 -0.50772,-0.9575 -1.37727,-1.6623 -2.22649,-2.33565 -12.13811,-9.62427 -25.07922,-18.55921 -39.61744,-23.90713 -15.27906,-5.62044 -32.10846,-7.0691 -48.0704,-3.86667 -20.96774,4.20674 -39.96503,16.34964 -53.94733,32.53105 -19.264,22.29381 -29.1701,52.45478 -26.76034,81.81987 2.40975,29.3651 17.13356,57.5454 39.93608,76.20447 4.53896,3.71418 9.38689,7.06874 14.57735,9.79938 10.08881,5.3076 21.44169,8.19258 32.84044,8.34537 l 0.44294,-1.10005 -5.93027,-3.27291 c -2.64117,-1.54104 -5.19601,-3.23004 -7.64853,-5.05643 -16.5704,-12.33997 -28.05433,-30.83544 -33.66519,-50.71939 -6.96491,-24.68249 -5.05245,-51.85655 5.76385,-75.11043 9.43821,-20.29114 25.85023,-37.62331 46.43791,-46.39585 11.59029,-4.9387 24.35565,-7.12906 36.92134,-6.21855 12.56569,0.91051 24.90841,4.93143 35.53629,11.69707 0.81243,0.51719 1.63587,1.05927 2.57248,1.28349 0.46831,0.1121 0.9611,0.14073 1.43217,0.0409 0.47108,-0.0999 0.9194,-0.33307 1.24156,-0.69097 z"
       id="path2" /></g></svg>
